<svg width="40" height="41" viewBox="0 0 40 41" fill="none" xmlns="http://www.w3.org/2000/svg">
<rect y="0.546387" width="40" height="40" rx="20" fill="#333333"/>
<path d="M18.8724 19.0994C19.2554 18.5249 19.4468 17.8547 19.4468 17.0888C19.4468 15.0782 17.7235 13.5464 15.8087 13.5464H10.2557C9.96846 13.5464 9.77698 13.7379 9.77698 14.0251V26.1842C9.77698 26.4715 9.96846 26.6629 10.2557 26.6629H16.3831C18.6809 26.6629 20.5957 24.8439 20.5957 22.5461C20.5957 21.1099 19.9256 19.8653 18.8724 19.0994ZM12.1705 16.0357H15.8087C16.4789 16.0357 16.9576 16.6101 16.9576 17.1846C16.9576 17.8547 16.3831 18.3334 15.8087 18.3334H12.1705V16.0357ZM16.4789 24.2694H12.1705V20.8227H16.4789C17.4363 20.8227 18.2022 21.5886 18.2022 22.5461C18.2022 23.5035 17.4363 24.2694 16.4789 24.2694Z" fill="white"/>
<path d="M31.223 21.6844C31.223 18.8122 29.021 16.5144 26.2445 16.5144C23.468 16.5144 21.2659 18.8122 21.2659 21.6844C21.2659 24.5566 23.468 26.8544 26.2445 26.8544C27.8721 26.8544 29.4039 25.9928 30.3613 24.5566C30.4571 24.3652 30.5528 24.1737 30.6486 23.9822C30.7443 23.8864 30.6486 23.695 30.4571 23.695H28.0636C27.9678 23.695 27.9678 23.695 27.8721 23.7907C27.3934 24.2694 26.8189 24.4609 26.2445 24.4609C24.9998 24.4609 24.0424 23.5992 23.7552 22.3546H30.7443C31.0315 22.3546 31.223 22.1631 31.223 21.8759V21.6844ZM26.2445 19.0036C27.1061 19.0036 27.8721 19.4824 28.3508 20.2483H24.1382C24.5211 19.4824 25.3828 19.0036 26.2445 19.0036Z" fill="white"/>
<path d="M28.255 15.9399H23.8509C23.6595 15.9399 23.468 15.7484 23.468 15.557V14.5038C23.468 14.3123 23.6595 14.1208 23.8509 14.1208H28.255C28.4465 14.1208 28.638 14.3123 28.638 14.5038V15.6527C28.638 15.7484 28.5423 15.9399 28.255 15.9399Z" fill="white"/>
</svg>
