<svg width="171" height="170" viewBox="0 0 171 170" fill="none" xmlns="http://www.w3.org/2000/svg">
<path d="M85.4691 85V1C131.861 1 169.469 38.6081 169.469 85C169.469 131.392 131.861 169 85.4691 169C76.4738 169 67.537 167.555 59 164.721L85.4691 85Z" fill="#418AF7" stroke="#262626" stroke-width="2"/>
<path d="M85.0076 85.4064L58.5385 165.127C19.4213 152.139 -4.4939 112.689 2.08434 72L85.0076 85.4064Z" fill="#599C2D" stroke="#262626" stroke-width="2"/>
<path d="M84.9233 85.3187L2 71.9124C5.48119 50.3799 17.2016 31.046 34.682 18L84.9233 85.3187Z" fill="#F1933E" stroke="#262626" stroke-width="2"/>
<path d="M85.2413 85L35 17.6813C49.5114 6.8511 67.134 1 85.2413 1V85Z" fill="#F05CAB" stroke="#262626" stroke-width="2"/>
<path d="M129.373 85.375C129.373 109.745 109.618 129.5 85.2481 129.5C60.8785 129.5 41.123 109.745 41.123 85.375C41.123 61.0054 60.8785 41.25 85.2481 41.25C109.618 41.25 129.373 61.0054 129.373 85.375Z" fill="#262626" stroke="#262626"/>
</svg>
