<svg width="170" height="170" viewBox="0 0 170 170" fill="none" xmlns="http://www.w3.org/2000/svg">
<path d="M85.0029 84.997V1C131.393 1 169 38.6067 169 84.997C169 102.735 163.384 120.019 152.958 134.369L85.0029 84.997Z" fill="#418AF7" stroke="#262626" stroke-width="2"/>
<path d="M85.0028 84.9971L152.958 134.369C125.69 171.9 73.1611 180.22 35.6306 152.952C35.6306 152.952 35.6306 152.952 35.6306 152.952L85.0028 84.9971Z" fill="#599C2D" stroke="#262626" stroke-width="2"/>
<path d="M85.0027 84.997L35.6305 152.952C6.19064 131.563 -6.1282 93.6492 5.11684 59.0405L85.0027 84.997Z" fill="#F1933E" stroke="#262626" stroke-width="2"/>
<path d="M85.0029 84.997L5.11694 59.0405C16.362 24.4318 48.6131 1 85.0029 1V84.997Z" fill="#F05CAB" stroke="#262626" stroke-width="2"/>
<circle cx="84.625" cy="84.625" r="44.625" fill="#262626"/>
</svg>
