<svg width="170" height="171" viewBox="0 0 170 171" fill="none" xmlns="http://www.w3.org/2000/svg">
<path d="M85.0044 85.1174V1.12183C131.394 1.12183 169 38.7279 169 85.1174C169 112.005 156.128 137.267 134.376 153.071L85.0044 85.1174Z" fill="#418AF7" stroke="#333333" stroke-width="2"/>
<path d="M85.0045 85.1174L134.376 153.071C117.092 165.629 95.6726 171.128 74.4771 168.451L85.0045 85.1174Z" fill="#599C2D" stroke="#333333" stroke-width="2"/>
<path d="M85.0046 85.1174L74.4771 168.451C28.4534 162.637 -4.14283 120.614 1.67131 74.59C2.33326 69.3501 3.48794 64.1844 5.12002 59.1614L85.0046 85.1174Z" fill="#F1933E" stroke="#333333" stroke-width="2"/>
<path d="M85.0047 85.1174L5.12012 59.1614C16.365 24.5533 48.6156 1.12183 85.0047 1.12183V85.1174Z" fill="#F05CAB" stroke="#333333" stroke-width="2"/>
<path d="M129.125 85.1177C129.125 109.487 109.37 129.243 85 129.243C60.6304 129.243 40.875 109.487 40.875 85.1177C40.875 60.7481 60.6304 40.9927 85 40.9927C109.37 40.9927 129.125 60.7481 129.125 85.1177Z" fill="#262626" stroke="#262626"/>
</svg>
