<svg width="170" height="171" viewBox="0 0 170 171" fill="none" xmlns="http://www.w3.org/2000/svg">
<path d="M84.9932 85.381V1.39404C117.527 1.39404 147.135 20.1835 160.987 49.6211L84.9932 85.381Z" fill="#418AF7" stroke="#262626" stroke-width="2"/>
<path d="M84.993 85.3807L160.987 49.6208C180.736 91.591 162.723 141.625 120.753 161.374C93.0336 174.418 60.4109 171.334 35.6267 153.328L84.993 85.3807Z" fill="#599C2D" stroke="#262626" stroke-width="2"/>
<path d="M84.993 85.3808L35.6266 153.328C-1.8994 126.063 -10.2182 73.5406 17.0461 36.0145C20.1501 31.7422 23.6502 27.7721 27.4999 24.157L84.993 85.3808Z" fill="#F1933E" stroke="#262626" stroke-width="2"/>
<path d="M84.9931 85.381L27.5 24.1571C43.0721 9.53397 63.6312 1.39404 84.9931 1.39404V85.381Z" fill="#F05CAB" stroke="#262626" stroke-width="2"/>
<circle cx="85.4075" cy="86.1011" r="44.25" fill="#262626" stroke="#262626" stroke-width="0.75"/>
</svg>
