<svg width="40" height="41" viewBox="0 0 40 41" fill="none" xmlns="http://www.w3.org/2000/svg">
<rect y="0.546387" width="40" height="40" rx="20" fill="#333333"/>
<path d="M28 21.2908V26.8065H24.7713V21.6271C24.7713 20.3491 24.3004 19.4746 23.157 19.4746C22.2825 19.4746 21.7444 20.08 21.5426 20.6181C21.4753 20.8199 21.4081 21.089 21.4081 21.4253V26.8065H18.1794C18.1794 26.8065 18.2466 18.0621 18.1794 17.1876H21.4081V18.5329C21.8117 17.8603 22.6188 16.9186 24.3004 16.9186C26.3856 16.9186 28 18.3311 28 21.2908ZM14.8161 12.5464C13.7399 12.5464 13 13.2863 13 14.228C13 15.1697 13.6726 15.9096 14.7489 15.9096C15.8924 15.9096 16.565 15.1697 16.565 14.228C16.6323 13.219 15.9596 12.5464 14.8161 12.5464ZM13.2018 26.8065H16.4305V17.1876H13.2018V26.8065Z" fill="white"/>
</svg>
