<svg width="33" height="33" viewBox="0 0 33 33" fill="none" xmlns="http://www.w3.org/2000/svg">
<rect x="0.5" y="0.5" width="32" height="32" rx="6.4" fill="#333333"/>
<path d="M14.1917 26.0702C12.7069 26.0702 11.4269 25.8312 10.3517 25.3533C9.2936 24.8584 8.3208 24.116 7.43333 23.1262L10.0445 20.5406C10.6248 21.2062 11.2648 21.7267 11.9645 22.1022C12.6813 22.4606 13.5091 22.6398 14.4477 22.6398C15.3011 22.6398 15.9581 22.4862 16.4189 22.179C16.8968 21.8718 17.1357 21.4451 17.1357 20.8989C17.1357 20.404 16.9821 20.003 16.6749 19.6958C16.3677 19.3886 15.9581 19.124 15.4461 18.9022C14.9512 18.6803 14.3965 18.467 13.7821 18.2622C13.1848 18.0574 12.5875 17.8269 11.9901 17.5709C11.3928 17.2979 10.8381 16.9651 10.3261 16.5725C9.8312 16.163 9.43013 15.6595 9.12293 15.0621C8.81573 14.4477 8.66213 13.6797 8.66213 12.7581C8.66213 11.6488 8.92667 10.6931 9.45573 9.89095C10.0019 9.08882 10.7528 8.48295 11.7085 8.07335C12.6643 7.64668 13.7651 7.43335 15.0109 7.43335C16.2739 7.43335 17.4259 7.65522 18.4669 8.09895C19.5251 8.54268 20.3955 9.14855 21.0781 9.91655L18.4669 12.5021C17.9208 11.9389 17.3661 11.5208 16.8029 11.2477C16.2568 10.9747 15.6339 10.8381 14.9341 10.8381C14.2344 10.8381 13.6797 10.9747 13.2701 11.2477C12.8605 11.5037 12.6557 11.8792 12.6557 12.3741C12.6557 12.8349 12.8093 13.2104 13.1165 13.5005C13.4237 13.7736 13.8248 14.0125 14.3197 14.2173C14.8317 14.4221 15.3864 14.6269 15.9837 14.8317C16.5981 15.0365 17.204 15.2755 17.8013 15.5485C18.3987 15.8216 18.9448 16.1715 19.4397 16.5981C19.9517 17.0077 20.3613 17.5368 20.6685 18.1854C20.9757 18.8168 21.1293 19.6019 21.1293 20.5406C21.1293 22.2643 20.5149 23.6211 19.2861 24.611C18.0573 25.5838 16.3592 26.0702 14.1917 26.0702Z" fill="#F2F2F2"/>
<circle cx="24.5" cy="23.4333" r="2.13333" fill="#916AFF"/>
</svg>
