<svg width="38" height="38" viewBox="0 0 38 38" fill="none" xmlns="http://www.w3.org/2000/svg">
<path fill-rule="evenodd" clip-rule="evenodd" d="M13.1423 22.8051C12.6019 23.143 11.7878 23.6905 11.1579 24.286C10.1239 25.2625 9.90748 26.6171 10.453 26.9335C10.9576 27.226 12.1356 26.878 12.9787 25.9584C13.8635 24.9929 14.2284 23.769 13.8516 22.3795C13.8073 22.4059 13.7638 22.4324 13.7212 22.457L13.7221 22.4589L13.6649 22.4913C13.4449 22.6227 13.2652 22.731 13.1423 22.8051ZM28.3277 22.3668C28.0216 23.0319 28.0063 23.246 28.0993 23.3126C28.5434 23.153 29.2782 22.7685 29.284 21.7381C29.285 21.5837 29.2509 21.4181 29.1963 21.2451C28.7215 21.6655 28.4478 22.1057 28.3277 22.3668ZM33.0936 20.3555C31.907 20.2172 30.9812 20.3836 30.2627 20.683C30.3957 21.0293 30.498 21.39 30.5124 21.7534C30.5458 22.5509 29.9968 23.1412 29.4247 23.5626C29.0906 23.8082 28.7351 23.972 28.4366 24.0709C28.1981 24.1715 27.8809 24.2755 27.6558 24.2296C27.1596 24.1287 26.8954 23.688 27.233 22.7156C27.4154 22.1894 27.9413 21.3884 28.7904 20.6984C28.5969 20.3001 28.3812 19.8941 28.2713 19.5212C28.0547 18.7861 27.9892 18.3417 27.9892 18.3417C27.9892 18.3417 27.2894 19.7926 26.3866 21.112C26.3345 21.1887 26.2825 21.2639 26.2305 21.3389C26.4078 21.7509 26.5475 22.1867 26.5665 22.6261C26.5997 23.4236 26.2544 24.0266 25.6815 24.447C25.3713 24.6757 25.0405 24.8337 24.7566 24.9342C24.5751 25.0135 24.2059 25.1438 23.6808 25.1789C23.3937 25.1986 23.1174 25.1808 22.9632 25.0639C22.7509 24.9035 22.7253 24.7056 22.8353 24.4352C22.9282 24.2057 23.6238 23.4117 24.2069 22.7165C24.368 22.5246 24.5214 22.3284 24.6586 22.1468L24.6552 22.139C24.6552 22.139 24.7609 22.0027 24.9323 21.7647C24.7192 21.3057 24.449 20.828 24.322 20.3948C24.1053 19.6596 24.0398 19.2151 24.0398 19.2151C24.0398 19.2151 23.3304 21.0337 22.5915 22.4854C22.0196 23.6097 21.6376 24.2911 21.4655 24.5896L21.4637 24.6016C21.4637 24.6016 21.4381 24.6452 21.3938 24.7134L21.3607 24.7687L21.3597 24.7636C21.1679 25.0469 20.7374 25.6021 20.3095 25.6021C19.1349 25.6021 19.5661 23.2164 19.5661 23.2164C19.5661 23.2164 19.2227 24.1 18.8356 24.8583C18.5203 25.4767 18.2331 26.0006 17.6048 26.0006C17.4241 26.0006 17.1377 25.9953 16.8998 25.7692C16.3602 25.2566 15.9477 23.9549 16.0285 22.9468C16.0976 22.0896 16.2297 21.4959 16.4104 21.0005C16.0882 21.1761 15.7157 21.3843 15.3364 21.607L14.7532 21.9506L14.7721 21.9848C15.2545 22.9179 15.3832 24.9624 14.3313 26.5319C13.2795 28.1021 11.3214 29.0575 9.41369 28.527C8.79812 28.3555 7.8682 27.082 8.67029 25.307C9.37779 23.7418 12.2053 22.2619 12.9505 21.8926L13.155 21.78C11.6694 20.4801 7.95943 18.7264 7.4395 16.0328C7.29284 15.2745 7.64833 13.4611 9.87482 11.3766C11.7476 9.62374 14.3527 8.28115 16.7592 7.42561C20.8022 5.98842 25.0738 6.83618 25.731 9.41386C26.3771 11.9489 24.178 14.9812 21.3615 16.0712C18.8468 17.0444 16.7676 16.8901 15.9135 16.6095C14.9426 16.2905 14.3731 15.6499 14.2342 15.2882C14.1796 15.1467 14.0857 14.9088 14.2342 14.8269C14.3254 14.7765 14.362 14.7885 14.6058 15.058C14.8377 15.3139 15.7702 16.0006 17.5416 15.8018C22.1901 15.2807 24.9902 11.6666 24.1053 9.72182C23.4857 8.36052 19.9029 7.74635 15.4267 9.97853C9.96256 12.7029 9.66599 14.9488 9.61916 15.8018C9.49121 18.1482 12.513 19.3825 14.1481 21.1275L14.2111 21.1966C14.5171 21.0278 14.8403 20.8495 15.1573 20.6755C15.9817 20.2225 16.7592 19.7977 17.1214 19.5998C17.6969 18.7633 18.8646 17.8402 19.7077 17.8402C21.0554 17.8402 20.5925 19.7773 20.5925 19.7773C20.5925 19.7773 20.6198 19.6887 20.6564 19.6879C20.6948 19.6868 20.8432 19.4327 21.2592 19.5844C21.6871 19.7414 21.5898 20.0417 21.5925 20.0724C21.5976 20.132 21.087 21.8541 20.8748 22.9587C20.7732 23.4859 20.832 23.8698 20.862 23.8698C20.9037 23.8698 20.989 23.7358 21.0683 23.5917L21.0665 23.5874C21.0665 23.5874 21.1261 23.4783 21.226 23.2821L21.2456 23.2411L21.2464 23.243C21.3641 23.0127 21.5294 22.674 21.7203 22.2544C22.0945 21.4296 23.5223 18.2454 23.6434 17.8932C23.7644 17.541 23.8275 17.1768 23.8872 17.0206C23.946 16.8645 24.4507 16.7468 25.0405 16.7511C25.6304 16.7554 25.6902 17.007 25.6943 17.059C25.6986 17.111 25.4139 17.8096 25.3482 18.3034C25.2835 18.7973 25.3458 19.0437 25.3995 19.4583C25.4344 19.7295 25.604 20.0733 25.8045 20.4631C26.4148 19.4651 27.4887 17.5562 27.5919 17.0214C27.6626 16.6556 27.776 16.3049 27.8357 16.1488C27.8953 15.9927 28.3992 15.8751 28.989 15.8793C29.5789 15.8836 29.6385 16.1352 29.6428 16.1872C29.6471 16.2393 29.3614 16.9378 29.2967 17.4317C29.2319 17.9247 29.2943 18.1721 29.3479 18.5866C29.394 18.9414 29.6684 19.4182 29.9404 19.9606C30.6828 19.5947 31.5566 19.3491 32.5796 19.344C33.0032 19.3415 33.4951 19.3841 33.7491 19.4633V11.3031C33.7491 10.7274 33.4541 10.1969 32.9555 9.9095L19.6439 2.21563C19.1461 1.92812 18.5366 1.92812 18.0388 2.21563L4.76386 9.90578C4.26601 10.1933 4 10.7247 4 11.2995V26.6939C4 27.2687 4.26763 27.8001 4.76467 28.0875L18.061 35.7837C18.5587 36.0721 19.1623 36.0721 19.66 35.7837L32.9624 28.0875C33.4601 27.7992 33.75 27.2685 33.75 26.6939V20.4724C33.5812 20.4227 33.334 20.3835 33.0936 20.3555ZM18.7726 19.5493C18.4871 19.8691 18.0004 20.6939 17.7728 21.3842C17.3201 22.7548 17.5162 24.1477 17.8367 24.2314C18.2109 24.3293 18.8247 22.4973 19.1186 21.7807C19.3028 21.332 20.0189 19.3405 19.862 19.0744C19.7395 18.8662 19.2321 19.0343 18.7726 19.5493ZM23.9514 24.169C23.9514 24.169 23.8611 24.2544 23.9001 24.2782C23.953 24.3098 24.0672 24.2688 24.1917 24.2039C24.5438 23.9823 25.3339 23.4295 25.3357 22.6115C25.3357 22.5877 25.3347 22.5647 25.3331 22.5399C25.1498 22.7805 24.981 22.9945 24.8353 23.1762C24.5863 23.4857 23.9514 24.169 23.9514 24.169Z" fill="#F2F2F2"/>
</svg>
