<svg width="38" height="38" viewBox="0 0 38 38" fill="none" xmlns="http://www.w3.org/2000/svg">
<path d="M8.30056 5C6.29498 5 4.81098 6.75536 4.87741 8.65906C4.94115 10.488 4.85834 12.8567 4.262 14.7884C3.66387 16.7257 2.6523 17.953 1 18.1106V19.8894C2.6523 20.047 3.66387 21.2743 4.262 23.2116C4.85834 25.1433 4.94115 27.512 4.87741 29.3409C4.81098 31.2443 6.29498 33 8.30086 33H28.8511C30.8567 33 32.3404 31.2446 32.2739 29.3409C32.2102 27.512 32.293 25.1433 32.8893 23.2116C33.4878 21.2743 34.4967 20.047 36.149 19.8894V18.1106C34.4967 17.953 33.4878 16.7257 32.8893 14.7884C32.293 12.857 32.2102 10.488 32.2739 8.65906C32.3404 6.75566 30.8567 5 28.8511 5H8.30026H8.30056ZM24.8298 22.2358C24.8298 24.8571 22.8746 26.4468 19.6298 26.4468H14.1064C13.7774 26.4468 13.5106 26.1801 13.5106 25.8511V12.1489C13.5106 11.8199 13.7774 11.5532 14.1064 11.5532H19.5983C22.3038 11.5532 24.0795 13.0187 24.0795 15.2689C24.0795 16.8482 22.885 18.2622 21.3632 18.5097V18.5922C23.4349 18.8195 24.8298 20.254 24.8298 22.2358ZM19.0275 13.4417H15.8781V17.8901H18.5307C20.5812 17.8901 21.712 17.0644 21.712 15.5885C21.712 14.2054 20.7397 13.4417 19.0275 13.4417ZM15.8781 19.6553V24.5577H19.1434C21.2783 24.5577 22.4093 23.701 22.4093 22.091C22.4093 20.4807 21.2467 19.655 19.0061 19.655H15.8781V19.6553Z" fill="#F2F2F2"/>
</svg>
