<svg width="39" height="40" viewBox="0 0 39 40" fill="none" xmlns="http://www.w3.org/2000/svg">
<rect y="0.514648" width="39" height="39" rx="8.86364" fill="#333333"/>
<path fill-rule="evenodd" clip-rule="evenodd" d="M24.5635 7.75684C24.5635 14.031 20.7166 16.1834 17.8772 17.7405C17.8509 17.7552 17.8248 17.7699 17.7987 17.7846C15.2329 19.2247 13.5719 20.1569 13.5265 23.6024H8.85529C8.85529 17.3283 12.7022 15.1759 15.5416 13.6188C18.152 12.1991 19.8465 11.2374 19.8465 7.75684H24.5635ZM21.6782 22.1827C24.2886 20.763 25.9831 19.8013 25.9831 16.3208H30.6543C30.6543 22.5949 26.8074 24.7473 23.968 26.3044C21.3576 27.7241 19.6632 28.6858 19.6632 32.1664H14.9919C14.9919 25.8922 18.8388 23.7398 21.6782 22.1827Z" fill="white"/>
</svg>
