<svg width="38" height="38" viewBox="0 0 38 38" fill="none" xmlns="http://www.w3.org/2000/svg">
<path fill-rule="evenodd" clip-rule="evenodd" d="M9.24121 2H10.7736V3.51406H12.1754V2H13.708V6.58496H12.1755V5.04964H10.7737V6.58496H9.24121V2ZM19.0294 34.8305L10.2452 32.392L8.23169 9.80837H29.856L27.8404 32.3878L19.0294 34.8305ZM9.19214 33.269L7.10046 9.80837L7 8.68161H8.13123H29.9566H31.0878L30.9873 9.80837L28.8934 33.2652L19.0292 35.9998L9.19214 33.269ZM25.2608 28.56L25.2155 29.0694L19.03 30.7843L12.8529 29.0694L12.4304 24.3346H13.8256H15.4575L15.6722 26.7396L19.0433 27.6428L22.3967 26.7377L22.7468 22.8268H19.0439H12.2957L11.5545 14.5168L11.4823 13.7077H19.0387H26.5874L26.5153 14.5168L26.3779 16.0455L26.3077 16.7233H19.0387H14.7779L15.0535 19.8113H26.043L25.9695 20.621L25.2608 28.56ZM14.3741 3.52044H15.7232H15.7233V6.58496H17.2558V3.52044H18.6055V2H14.3741V3.52044ZM19.2771 2H20.875L21.858 3.61102L22.8399 2H24.4384V6.58496H22.9123V4.3124L21.858 5.94261H21.8316L20.7765 4.3124V6.58496H19.2771V2ZM26.734 2H25.2011V6.58496H28.8891V5.06943H26.734V2Z" fill="#F2F2F2"/>
</svg>
