<svg width="38" height="38" viewBox="0 0 38 38" fill="none" xmlns="http://www.w3.org/2000/svg">
<path fill-rule="evenodd" clip-rule="evenodd" d="M15.6737 2V3.56639H13.5049V5.01229H15.6737V6.57868H11.9385V2H15.6737ZM17.2402 2H20.9754V3.56639H19.5584L20.9754 5.05374V6.57868H17.2402V5.01229H18.7988L17.2402 3.6079V2ZM26.3975 2H22.6623V3.6079L24.1606 5.01229H22.6623V6.57868H26.3975V5.05374L24.9203 3.56639H26.3975V2ZM10.2452 32.3921L19.0294 34.8307L27.8404 32.388L29.856 9.80853H8.23169L10.2452 32.3921ZM7.10046 9.80853L9.19214 33.2692L19.0292 36L28.8934 33.2653L30.9873 9.80853L31.0878 8.68177H29.9566H8.13123H7L7.10046 9.80853ZM19.1882 13.516V13.5159H19.1576H11.6032L11.8705 16.5282H19.1882V16.5283H19.6745L19.1882 16.7367V19.7538V19.7539V22.7661H22.8724L22.5375 26.7044L19.1883 27.638V27.6354L19.1649 27.6389L15.7999 26.7352L15.5801 24.3325H12.5516L12.9742 29.066L19.1643 30.7799L19.1882 30.7743V30.7766L25.3577 29.0627L26.1702 19.7538H19.1884L26.444 16.5283L26.7031 13.516H19.1882ZM12.4029 22.7661V22.7661L12.1387 19.7538V19.7538H12.1388L19.1882 16.7367V19.7538V19.7538V22.7661H12.403L12.4029 22.7661Z" fill="#F2F2F2"/>
</svg>
