<svg width="38" height="39" viewBox="0 0 38 39" fill="none" xmlns="http://www.w3.org/2000/svg">
<g clip-path="url(#clip0_47_135)">
<path fill-rule="evenodd" clip-rule="evenodd" d="M0 14.267C0 9.45324 0 7.04635 0.936825 5.20773C1.76088 3.59043 3.07578 2.27553 4.69308 1.45147C6.5317 0.514648 8.9386 0.514648 13.7524 0.514648H24.2476C29.0614 0.514648 31.4683 0.514648 33.3069 1.45147C34.9242 2.27553 36.2391 3.59043 37.0632 5.20773C38 7.04634 38 9.45329 38 14.267V24.7623C38 29.5761 38 31.983 37.0632 33.8216C36.2391 35.4389 34.9242 36.7538 33.3069 37.5778C31.4683 38.5146 29.0614 38.5146 24.2476 38.5146H13.7523C8.93857 38.5146 6.53169 38.5146 4.69308 37.5778C3.07578 36.7538 1.76088 35.4389 0.936825 33.8216C0 31.9829 0 29.5761 0 24.7623V14.267Z" fill="#333333"/>
<path d="M25.47 15.7618C26.2745 15.2282 26.8859 14.45 27.214 13.5422C27.5422 12.6344 27.5696 11.6451 27.2922 10.7205C27.0148 9.79587 26.4474 8.98502 25.6737 8.40772C24.9 7.83043 23.9612 7.51732 22.9959 7.51465H15.4984C14.5331 7.51732 13.5943 7.83043 12.8206 8.40772C12.047 8.98502 11.4795 9.79587 11.2021 10.7205C10.9248 11.6451 10.9522 12.6344 11.2803 13.5422C11.6084 14.45 12.2199 15.2282 13.0243 15.7618C12.4057 16.1722 11.8982 16.7292 11.5472 17.3833C11.1962 18.0374 11.0125 18.7682 11.0125 19.5105C11.0125 20.2529 11.1962 20.9837 11.5472 21.6378C11.8982 22.2918 12.4057 22.8489 13.0243 23.2592C12.3739 23.6876 11.8458 24.2774 11.4918 24.9711C11.1377 25.6647 10.9698 26.4384 11.0045 27.2165C11.0391 27.9945 11.2752 28.7502 11.6895 29.4096C12.1039 30.069 12.6823 30.6095 13.3683 30.9783C14.0542 31.3471 14.8241 31.5315 15.6027 31.5134C16.3813 31.4954 17.1419 31.2755 17.81 30.8753C18.4781 30.4752 19.0309 29.9084 19.4142 29.2305C19.7975 28.5526 19.9983 27.7867 19.9969 27.008V22.8844C20.8383 23.5917 21.8969 23.9887 22.9959 24.009C23.9612 24.0063 24.9 23.6932 25.6737 23.1159C26.4474 22.5386 27.0148 21.7278 27.2922 20.8032C27.5696 19.8786 27.5422 18.8893 27.214 17.9814C26.8859 17.0736 26.2745 16.2954 25.47 15.7618ZM19.9969 9.01413H22.9959C23.7913 9.01413 24.554 9.3301 25.1165 9.89251C25.6789 10.4549 25.9948 11.2177 25.9948 12.0131C25.9948 12.8085 25.6789 13.5713 25.1165 14.1337C24.554 14.6961 23.7913 15.0121 22.9959 15.0121H19.9969V9.01413ZM12.4995 12.0131C12.4995 11.2177 12.8154 10.4549 13.3779 9.89251C13.9403 9.3301 14.7031 9.01413 15.4984 9.01413H18.4974V15.0121H15.4984C14.7031 15.0121 13.9403 14.6961 13.3779 14.1337C12.8154 13.5713 12.4995 12.8085 12.4995 12.0131ZM12.4995 19.5105C12.4995 18.7152 12.8154 17.9524 13.3779 17.3899C13.9403 16.8275 14.7031 16.5116 15.4984 16.5116H18.4974V22.5095H15.4984C14.7031 22.5095 13.9403 22.1935 13.3779 21.6311C12.8154 21.0687 12.4995 20.3059 12.4995 19.5105ZM18.4974 27.008C18.4974 27.6011 18.3215 28.1809 17.992 28.6741C17.6625 29.1673 17.1941 29.5517 16.6461 29.7786C16.0981 30.0056 15.4951 30.065 14.9134 29.9493C14.3316 29.8336 13.7973 29.548 13.3779 29.1285C12.9584 28.7091 12.6728 28.1748 12.5571 27.593C12.4414 27.0113 12.5008 26.4083 12.7278 25.8603C12.9547 25.3123 13.3391 24.8439 13.8323 24.5144C14.3255 24.1849 14.9053 24.009 15.4984 24.009H18.4974V27.008ZM22.9959 22.5095C22.4027 22.5095 21.8229 22.3336 21.3297 22.0041C20.8366 21.6746 20.4522 21.2062 20.2252 20.6582C19.9982 20.1102 19.9388 19.5072 20.0545 18.9255C20.1702 18.3437 20.4559 17.8094 20.8753 17.3899C21.2947 16.9705 21.8291 16.6849 22.4108 16.5692C22.9925 16.4535 23.5955 16.5129 24.1435 16.7398C24.6915 16.9668 25.1599 17.3512 25.4894 17.8444C25.819 18.3376 25.9948 18.9174 25.9948 19.5105C25.9948 20.3059 25.6789 21.0687 25.1165 21.6311C24.554 22.1935 23.7913 22.5095 22.9959 22.5095Z" fill="#F2F2F2"/>
</g>
<defs>
<clipPath id="clip0_47_135">
<rect width="38" height="38" fill="white" transform="translate(0 0.514648)"/>
</clipPath>
</defs>
</svg>
