<svg width="39" height="40" viewBox="0 0 39 40" fill="none" xmlns="http://www.w3.org/2000/svg">
<rect y="0.514648" width="39" height="39" rx="8.86364" fill="#333333"/>
<path fill-rule="evenodd" clip-rule="evenodd" d="M9.98924 9.81592C9.76909 9.81592 9.56737 9.90809 9.43053 10.0591C9.30723 10.187 9.23059 10.361 9.22504 10.5502V10.6005C9.22748 10.6902 9.24525 10.7745 9.27702 10.8519C9.27835 10.8587 9.28124 10.8642 9.28368 10.871C9.30857 10.9295 9.33989 10.9837 9.37965 11.0342C9.39321 11.0534 9.40853 11.071 9.42497 11.0871C9.42764 11.0913 9.43164 11.0953 9.43586 11.0995L11.8718 13.97L12.7513 15.0062L15.3846 18.1082L16.2641 19.1429L18.6218 21.9212L19.4998 22.9558V30.2133C19.548 30.2133 19.5946 30.212 19.6411 30.208C20.1027 30.1756 20.5192 29.9796 20.8329 29.679C20.8345 29.679 20.8345 29.679 20.8345 29.6775L21.0933 29.3717L27.4173 21.9212L29.5819 19.37C29.5928 19.3592 29.6023 19.3468 29.6121 19.3347C29.6586 19.2776 29.6954 19.2134 29.7228 19.1429C29.7572 19.0586 29.775 18.9662 29.775 18.8681V10.5747C29.775 10.3747 29.6968 10.191 29.5681 10.0578C29.4297 9.90809 29.2309 9.81592 29.009 9.81592H9.98924Z" fill="white"/>
<path fill-rule="evenodd" clip-rule="evenodd" d="M19.5005 27.1105V30.2135C18.9827 30.2135 18.5129 30.0095 18.1674 29.679C18.1661 29.679 18.1661 29.679 18.1661 29.6779L17.9073 29.3718L11.5833 21.9214L9.43108 19.3851C9.42552 19.3825 9.42152 19.377 9.41864 19.3715L9.38442 19.3322C9.38176 19.3293 9.3802 19.3267 9.37776 19.3238C9.33644 19.2683 9.3009 19.2083 9.27757 19.143C9.24602 19.0656 9.22825 18.9814 9.22559 18.8943V18.8427C9.22559 18.8264 9.22692 18.8098 9.22981 18.7935C9.24469 18.6224 9.31867 18.4698 9.43108 18.3503C9.56948 18.2021 9.76941 18.1084 9.98979 18.1084H11.8574L12.7356 19.143L15.0933 21.9214L18.9592 26.4755L19.4992 27.1119L19.5005 27.1105Z" fill="white" fill-opacity="0.8"/>
<path fill-rule="evenodd" clip-rule="evenodd" d="M19.5005 22.9564V27.1099L19.4992 27.1112L18.9598 26.475L15.0939 21.9214L12.7358 19.1435L11.8574 18.1082L9.41686 15.2346C9.40664 15.2233 9.39642 15.2105 9.3862 15.1975C9.34133 15.1404 9.30401 15.0767 9.2769 15.0063C9.24625 14.9287 9.22825 14.8445 9.22559 14.7554V14.7043C9.2307 14.5144 9.30778 14.3435 9.43108 14.2136C9.56859 14.063 9.76875 13.97 9.98979 13.97H11.8727L12.7525 15.0063L15.3856 18.1082L16.264 19.1435L18.6222 21.9214L19.5005 22.9564Z" fill="white" fill-opacity="0.7"/>
</svg>
