<svg width="39" height="40" viewBox="0 0 39 40" fill="none" xmlns="http://www.w3.org/2000/svg">
<rect y="0.514648" width="39" height="39" rx="8.86364" fill="#333333"/>
<g clip-path="url(#clip0_886_721)">
<path fill-rule="evenodd" clip-rule="evenodd" d="M7.1046 25.2514C5.35801 23.5201 5.35804 20.7132 7.10465 18.982L11.8485 14.2799C13.3251 12.8164 15.5771 12.59 17.2934 13.6009C17.8243 13.9135 17.8197 14.6308 17.383 15.0636C16.9464 15.4964 16.2336 15.4591 15.6409 15.2873C14.8819 15.0673 14.0284 15.2539 13.4298 15.8472L8.68593 20.5494C7.81263 21.415 7.81262 22.8184 8.68591 23.6841C9.55922 24.5497 10.9752 24.5497 11.8485 23.6841L21.3362 14.2799C23.0828 12.5487 25.9146 12.5487 27.6612 14.2799L32.4052 18.982C34.1519 20.7132 34.1519 23.5202 32.4052 25.2514C30.6585 26.9826 27.8267 26.9826 26.0801 25.2514L24.4988 23.684L22.5222 25.6432C21.0457 27.1067 18.7937 27.3331 17.0773 26.3223C16.5464 26.0096 16.551 25.2924 16.9877 24.8596C17.4244 24.4267 18.1371 24.464 18.7298 24.6358C19.4888 24.8559 20.3423 24.6692 20.9409 24.0759L22.974 22.0607C23.8161 21.226 25.1815 21.226 26.0236 22.0607L27.6614 23.6841C28.5347 24.5497 29.9505 24.5497 30.824 23.6841C31.6972 22.8184 31.6972 21.415 30.824 20.5494L26.08 15.8473C25.2067 14.9817 23.7908 14.9817 22.9174 15.8473L13.4298 25.2514C11.6831 26.9827 8.85122 26.9827 7.1046 25.2514Z" fill="white"/>
</g>
<defs>
<clipPath id="clip0_886_721">
<rect width="28.8068" height="14.4034" fill="white" transform="translate(5.3515 12.7598)"/>
</clipPath>
</defs>
</svg>
