<svg width="23" height="22" viewBox="0 0 23 22" fill="none" xmlns="http://www.w3.org/2000/svg">
<ellipse cx="11.6136" cy="11" rx="11" ry="11" fill="#C03845"/>
<path fill-rule="evenodd" clip-rule="evenodd" d="M7.86705 8.1854C7.61535 7.92244 7.62447 7.50523 7.88743 7.25352C8.15038 7.00182 8.56759 7.01094 8.8193 7.2739L11.7582 10.3441L14.697 7.2739C14.9487 7.01094 15.3659 7.00182 15.6289 7.25352C15.8918 7.50523 15.901 7.92244 15.6493 8.1854L12.6705 11.2973L15.6491 14.409C15.9008 14.672 15.8917 15.0892 15.6287 15.3409C15.3658 15.5926 14.9486 15.5835 14.6969 15.3205L11.7582 12.2505L8.81945 15.3205C8.56775 15.5835 8.15054 15.5926 7.88758 15.3409C7.62463 15.0892 7.6155 14.672 7.86721 14.409L10.8458 11.2973L7.86705 8.1854Z" fill="white"/>
</svg>
