<svg width="22" height="22" viewBox="0 0 22 22" fill="none" xmlns="http://www.w3.org/2000/svg">
<ellipse cx="11" cy="11" rx="11" ry="11" fill="white" fill-opacity="0.3"/>
<path d="M7.67489 15.202L11.2589 11.422C11.6229 11.0487 11.9076 10.7267 12.1129 10.456C12.3182 10.176 12.4629 9.91933 12.5469 9.686C12.6402 9.45267 12.6869 9.21 12.6869 8.958C12.6869 8.46333 12.5282 8.076 12.2109 7.796C11.8936 7.516 11.4829 7.376 10.9789 7.376C10.4842 7.376 10.0502 7.49733 9.67689 7.74C9.30356 7.97333 8.97222 8.33733 8.68289 8.832L7.75889 8.062C8.14156 7.42733 8.60356 6.95133 9.14489 6.634C9.68622 6.30733 10.3116 6.144 11.0209 6.144C11.6182 6.144 12.1362 6.26067 12.5749 6.494C13.0229 6.72733 13.3682 7.054 13.6109 7.474C13.8536 7.894 13.9749 8.384 13.9749 8.944C13.9749 9.34533 13.9236 9.70467 13.8209 10.022C13.7276 10.3393 13.5549 10.666 13.3029 11.002C13.0602 11.3287 12.7196 11.7207 12.2809 12.178L9.38289 15.16L7.67489 15.202ZM7.67489 16V15.202L8.79489 14.824H14.1989V16H7.67489Z" fill="white"/>
</svg>
