<svg width="22" height="22" viewBox="0 0 22 22" fill="none" xmlns="http://www.w3.org/2000/svg">
<ellipse cx="11" cy="11" rx="11" ry="11" fill="white" fill-opacity="0.3"/>
<path d="M10.6914 16.14C10.0567 16.14 9.47807 16.0233 8.9554 15.79C8.44207 15.5473 8.00807 15.1973 7.6534 14.74L8.5494 13.844C8.76407 14.1707 9.05807 14.432 9.4314 14.628C9.80473 14.8147 10.2201 14.908 10.6774 14.908C11.1067 14.908 11.4754 14.8287 11.7834 14.67C12.1007 14.502 12.3481 14.2687 12.5254 13.97C12.7121 13.6713 12.8054 13.326 12.8054 12.934C12.8054 12.5327 12.7121 12.1873 12.5254 11.898C12.3481 11.5993 12.0961 11.3707 11.7694 11.212C11.4427 11.0533 11.0554 10.974 10.6074 10.974C10.4394 10.974 10.2714 10.988 10.1034 11.016C9.9354 11.0347 9.77207 11.0673 9.6134 11.114L10.1734 10.358C10.3507 10.274 10.5421 10.2087 10.7474 10.162C10.9527 10.1153 11.1581 10.092 11.3634 10.092C11.8861 10.092 12.3527 10.2133 12.7634 10.456C13.1834 10.6987 13.5147 11.0393 13.7574 11.478C14.0094 11.9167 14.1354 12.4253 14.1354 13.004C14.1354 13.62 13.9861 14.166 13.6874 14.642C13.3981 15.1087 12.9967 15.4773 12.4834 15.748C11.9701 16.0093 11.3727 16.14 10.6914 16.14ZM9.6134 11.114V10.316L12.4554 7.082L14.0234 7.068L11.0974 10.386L9.6134 11.114ZM8.1154 7.46V6.284H14.0234V7.068L12.8754 7.46H8.1154Z" fill="white"/>
</svg>
