<svg width="22" height="22" viewBox="0 0 22 22" fill="none" xmlns="http://www.w3.org/2000/svg">
<ellipse cx="11" cy="11" rx="11" ry="11" fill="white" fill-opacity="0.3"/>
<path d="M10.6849 16.14C10.0222 16.14 9.42956 16.0233 8.90689 15.79C8.39356 15.5473 7.95956 15.1973 7.60489 14.74L8.50089 13.844C8.71556 14.1707 9.00956 14.432 9.38289 14.628C9.76556 14.8147 10.1902 14.908 10.6569 14.908C11.0956 14.908 11.4782 14.824 11.8049 14.656C12.1409 14.488 12.4022 14.2547 12.5889 13.956C12.7849 13.648 12.8829 13.284 12.8829 12.864C12.8829 12.4347 12.7896 12.0707 12.6029 11.772C12.4162 11.4733 12.1642 11.2493 11.8469 11.1C11.5389 10.9413 11.1982 10.862 10.8249 10.862C10.4422 10.862 10.0922 10.9087 9.77489 11.002C9.46689 11.0953 9.17289 11.254 8.89289 11.478L8.90689 10.638C9.06556 10.442 9.24756 10.2833 9.45289 10.162C9.65822 10.0407 9.89156 9.94733 10.1529 9.882C10.4142 9.81667 10.7176 9.784 11.0629 9.784C11.7349 9.784 12.3042 9.924 12.7709 10.204C13.2376 10.484 13.5922 10.862 13.8349 11.338C14.0869 11.814 14.2129 12.346 14.2129 12.934C14.2129 13.55 14.0589 14.1007 13.7509 14.586C13.4522 15.0713 13.0369 15.454 12.5049 15.734C11.9729 16.0047 11.3662 16.14 10.6849 16.14ZM8.89289 11.478L8.17889 10.764L8.61289 6.284H9.81689L9.32689 10.89L8.89289 11.478ZM8.87889 7.46L8.61289 6.284H13.7229V7.46H8.87889Z" fill="white"/>
</svg>
