<svg width="22" height="22" viewBox="0 0 22 22" fill="none" xmlns="http://www.w3.org/2000/svg">
<ellipse cx="11" cy="11" rx="11" ry="11" fill="white" fill-opacity="0.3"/>
<path d="M10.9968 16.14C10.3528 16.14 9.77416 15.9907 9.26083 15.692C8.75683 15.3933 8.35549 14.992 8.05683 14.488C7.75816 13.984 7.60883 13.424 7.60883 12.808C7.60883 11.9493 7.90749 11.0953 8.50483 10.246L11.3608 6.284H12.8868L9.96083 10.274L9.48483 10.526C9.59683 10.33 9.73216 10.1667 9.89083 10.036C10.0495 9.896 10.2455 9.78867 10.4788 9.714C10.7122 9.63933 10.9875 9.602 11.3048 9.602C11.8742 9.602 12.3875 9.73733 12.8448 10.008C13.3115 10.2787 13.6848 10.652 13.9648 11.128C14.2542 11.5947 14.3988 12.1407 14.3988 12.766C14.3988 13.382 14.2448 13.9467 13.9368 14.46C13.6382 14.9733 13.2275 15.384 12.7048 15.692C12.1915 15.9907 11.6222 16.14 10.9968 16.14ZM10.9968 14.908C11.3888 14.908 11.7388 14.8147 12.0468 14.628C12.3642 14.432 12.6115 14.1753 12.7888 13.858C12.9755 13.5313 13.0688 13.1673 13.0688 12.766C13.0688 12.3647 12.9755 12.0053 12.7888 11.688C12.6115 11.3613 12.3642 11.1047 12.0468 10.918C11.7388 10.7313 11.3888 10.638 10.9968 10.638C10.6048 10.638 10.2502 10.7313 9.93283 10.918C9.62483 11.1047 9.37749 11.3613 9.19083 11.688C9.01349 12.0053 8.92483 12.3647 8.92483 12.766C8.92483 13.1673 9.01349 13.5313 9.19083 13.858C9.37749 14.1847 9.62483 14.4413 9.93283 14.628C10.2502 14.8147 10.6048 14.908 10.9968 14.908Z" fill="white"/>
</svg>
