<svg width="28" height="29" viewBox="0 0 28 29" fill="none" xmlns="http://www.w3.org/2000/svg">
<path d="M13.9468 25.3111C19.7237 25.3111 24.4069 20.628 24.4069 14.8511C24.4069 9.07413 19.7237 4.39099 13.9468 4.39099C8.16983 4.39099 3.48669 9.07413 3.48669 14.8511C3.48669 20.628 8.16983 25.3111 13.9468 25.3111Z" stroke="white" stroke-width="1.26789" stroke-linecap="round" stroke-linejoin="round"/>
<path d="M13.9467 18.3378C16.3538 18.3378 18.3051 16.3865 18.3051 13.9795C18.3051 11.5724 16.3538 9.62109 13.9467 9.62109C11.5397 9.62109 9.58838 11.5724 9.58838 13.9795C9.58838 16.3865 11.5397 18.3378 13.9467 18.3378Z" stroke="white" stroke-width="1.26789" stroke-linecap="round" stroke-linejoin="round"/>
<path d="M6.95105 22.6307C7.60689 21.3389 8.60762 20.2539 9.84233 19.4961C11.077 18.7382 12.4975 18.337 13.9462 18.337C15.395 18.337 16.8154 18.7382 18.0501 19.4961C19.2848 20.2539 20.2856 21.3389 20.9414 22.6307" stroke="white" stroke-width="1.26789" stroke-linecap="round" stroke-linejoin="round"/>
</svg>
