<svg width="28" height="29" viewBox="0 0 28 29" fill="none" xmlns="http://www.w3.org/2000/svg">
<path d="M13.9467 20.0812V9.62109" stroke="white" stroke-width="1.26789" stroke-linecap="round" stroke-linejoin="round"/>
<path d="M9.58835 16.5945C10.4503 16.5945 11.293 16.8501 12.0097 17.329C12.7265 17.8079 13.2851 18.4886 13.615 19.285C13.9448 20.0814 14.0311 20.9577 13.863 21.8031C13.6948 22.6486 13.2797 23.4252 12.6702 24.0347C12.0606 24.6442 11.2841 25.0593 10.4386 25.2275C9.59318 25.3956 8.71686 25.3093 7.92047 24.9795C7.12409 24.6496 6.4434 24.091 5.9645 23.3742C5.48559 22.6575 5.22998 21.8149 5.22998 20.9528V20.2228" stroke="white" stroke-width="1.26789" stroke-linecap="round" stroke-linejoin="round"/>
<path d="M18.305 16.5945C17.443 16.5945 16.6004 16.8501 15.8836 17.329C15.1669 17.8079 14.6083 18.4886 14.2784 19.285C13.9485 20.0814 13.8622 20.9577 14.0304 21.8031C14.1986 22.6486 14.6137 23.4252 15.2232 24.0347C15.8327 24.6442 16.6093 25.0593 17.4547 25.2275C18.3002 25.3956 19.1765 25.3093 19.9729 24.9795C20.7693 24.6496 21.45 24.091 21.9289 23.3742C22.4078 22.6575 22.6634 21.8149 22.6634 20.9528V20.2228" stroke="white" stroke-width="1.26789" stroke-linecap="round" stroke-linejoin="round"/>
<path d="M7.84415 20.5169H6.97248C5.73626 20.5203 4.53882 20.0856 3.59261 19.29C2.64641 18.4944 2.0126 17.3894 1.80365 16.1709C1.5947 14.9525 1.82411 13.6994 2.45118 12.634C3.07825 11.5686 4.06244 10.7598 5.22913 10.3511V8.74936C5.22913 7.59345 5.68832 6.48488 6.50567 5.66753C7.32302 4.85017 8.43159 4.39099 9.5875 4.39099C10.7434 4.39099 11.852 4.85017 12.6693 5.66753C13.4867 6.48488 13.9459 7.59345 13.9459 8.74936V20.9528" stroke="white" stroke-width="1.26789" stroke-linecap="round" stroke-linejoin="round"/>
<path d="M20.0484 20.5169H20.92C22.1563 20.5203 23.3537 20.0856 24.2999 19.29C25.2461 18.4944 25.8799 17.3894 26.0889 16.1709C26.2978 14.9525 26.0684 13.6994 25.4413 12.634C24.8143 11.5686 23.8301 10.7598 22.6634 10.3511V8.74936C22.6634 7.59345 22.2042 6.48488 21.3869 5.66753C20.5695 4.85017 19.4609 4.39099 18.305 4.39099C17.1491 4.39099 16.0405 4.85017 15.2232 5.66753C14.4058 6.48488 13.9467 7.59345 13.9467 8.74936" stroke="white" stroke-width="1.26789" stroke-linecap="round" stroke-linejoin="round"/>
<path d="M9.58833 10.0569V10.9286C9.58833 11.7377 9.2669 12.5137 8.69476 13.0858C8.12261 13.658 7.34661 13.9794 6.53748 13.9794" stroke="white" stroke-width="1.26789" stroke-linecap="round" stroke-linejoin="round"/>
<path d="M18.3051 10.0569V10.9286C18.3051 11.7377 18.6265 12.5137 19.1986 13.0858C19.7708 13.658 20.5468 13.9794 21.3559 13.9794" stroke="white" stroke-width="1.26789" stroke-linecap="round" stroke-linejoin="round"/>
</svg>
