<svg width="28" height="29" viewBox="0 0 28 29" fill="none" xmlns="http://www.w3.org/2000/svg">
<path d="M1.74341 8.98706H11.3318" stroke="white" stroke-width="1.26789" stroke-linecap="round" stroke-linejoin="round"/>
<path d="M16.5618 8.98706H26.1502" stroke="white" stroke-width="1.26789" stroke-linecap="round" stroke-linejoin="round"/>
<path d="M13.9468 11.6021C15.391 11.6021 16.5618 10.4313 16.5618 8.98709C16.5618 7.54285 15.391 6.37207 13.9468 6.37207C12.5026 6.37207 11.3318 7.54285 11.3318 8.98709C11.3318 10.4313 12.5026 11.6021 13.9468 11.6021Z" stroke="white" stroke-width="1.26789" stroke-linecap="round" stroke-linejoin="round"/>
<path d="M4.35843 22.0622C5.80266 22.0622 6.97345 20.8914 6.97345 19.4472C6.97345 18.0029 5.80266 16.8322 4.35843 16.8322C2.91419 16.8322 1.74341 18.0029 1.74341 19.4472C1.74341 20.8914 2.91419 22.0622 4.35843 22.0622Z" stroke="white" stroke-width="1.26789" stroke-linecap="round" stroke-linejoin="round"/>
<path d="M23.5352 22.0622C24.9794 22.0622 26.1502 20.8914 26.1502 19.4472C26.1502 18.0029 24.9794 16.8322 23.5352 16.8322C22.091 16.8322 20.9202 18.0029 20.9202 19.4472C20.9202 20.8914 22.091 22.0622 23.5352 22.0622Z" stroke="white" stroke-width="1.26789" stroke-linecap="round" stroke-linejoin="round"/>
<path d="M16.5396 9.34668C18.2652 9.83114 19.8208 10.7891 21.0301 12.112C22.2394 13.435 23.0542 15.0701 23.3822 16.8322" stroke="white" stroke-width="1.26789" stroke-linecap="round" stroke-linejoin="round"/>
<path d="M4.51074 16.8322C4.83872 15.0701 5.6535 13.435 6.86282 12.112C8.07215 10.7891 9.62771 9.83114 11.3534 9.34668" stroke="white" stroke-width="1.26789" stroke-linecap="round" stroke-linejoin="round"/>
</svg>
