<svg width="171" height="170" viewBox="0 0 171 170" fill="none" xmlns="http://www.w3.org/2000/svg">
<path d="M85.8562 1C103.586 0.996391 120.863 6.60291 135.212 17.0168L85.8733 85L85.8562 1Z" fill="#418AF7" stroke="#262626" stroke-width="2" stroke-linejoin="round"/>
<path d="M135.279 17.0662C151.079 28.5564 162.379 45.1941 167.236 64.1163C172.092 83.0385 170.202 103.062 161.89 120.741C153.578 138.42 139.364 152.649 121.693 160.98C104.023 169.31 84.0017 171.221 65.0745 166.384L85.873 85L135.279 17.0662Z" fill="#599C2D" stroke="#262626" stroke-width="2" stroke-linejoin="round"/>
<path d="M64.9931 166.364C53.0251 163.292 41.882 157.619 32.3582 149.747C22.8344 141.875 15.1644 132 9.89502 120.824L85.8729 85L64.9931 166.364Z" fill="#F1933E" stroke="#262626" stroke-width="2" stroke-linejoin="round"/>
<path d="M9.85936 120.748C3.84593 107.961 1.15533 93.8639 2.03659 79.7612C2.91785 65.6584 7.34249 52.0059 14.901 40.0671L85.8731 85L9.85936 120.748Z" fill="#F05CAB" stroke="#262626" stroke-width="2" stroke-linejoin="round"/>
<path d="M14.946 39.9961C22.5165 28.0649 32.9744 18.2363 45.3518 11.4199C57.7293 4.60349 71.6262 1.01963 85.7565 1L85.8732 84.9999L14.946 39.9961Z" fill="#64E572" stroke="#262626" stroke-width="2" stroke-linejoin="round"/>
<path d="M130.373 85.375C130.373 109.745 110.618 129.5 86.2481 129.5C61.8785 129.5 42.123 109.745 42.123 85.375C42.123 61.0054 61.8785 41.25 86.2481 41.25C110.618 41.25 130.373 61.0054 130.373 85.375Z" fill="#262626" stroke="#262626"/>
</svg>
