<svg width="171" height="171" viewBox="0 0 171 171" fill="none" xmlns="http://www.w3.org/2000/svg">
<path d="M85.8562 1.23023C104.491 1.22643 122.599 7.41948 137.328 18.8346C152.058 30.2498 162.574 46.239 167.22 64.2855C171.867 82.3321 170.38 101.411 162.995 118.521C155.609 135.63 142.744 149.797 126.425 158.794L85.8733 85.2302L85.8562 1.23023Z" fill="#418AF7" stroke="#262626" stroke-width="2" stroke-linejoin="round"/>
<path d="M126.35 158.834C115.523 164.788 103.517 168.28 91.1856 169.062C78.8545 169.844 66.5029 167.895 55.0113 163.356C43.5196 158.816 33.1708 151.798 24.7027 142.8C16.2346 133.803 9.85573 123.048 6.02075 111.302L85.8722 85.2302L126.35 158.834Z" fill="#599C2D" stroke="#262626" stroke-width="2" stroke-linejoin="round"/>
<path d="M5.99556 111.222C1.06757 96.0777 0.546426 79.8443 4.49288 64.415C8.43933 48.9856 16.6908 34.9961 28.285 24.0776L85.873 85.23L5.99556 111.222Z" fill="#F1933E" stroke="#262626" stroke-width="2" stroke-linejoin="round"/>
<path d="M28.3444 24.0204C43.8922 9.40815 64.4179 1.2601 85.7545 1.23047L85.8712 85.2304L28.3444 24.0204Z" fill="#F05CAB" stroke="#262626" stroke-width="2" stroke-linejoin="round"/>
<circle cx="86.248" cy="85.6052" r="44.25" fill="#262626" stroke="#262626" stroke-width="0.75"/>
</svg>
